<?xml version="1.0" encoding="UTF-8"?>
<svg xmlns="http://www.w3.org/2000/svg" xmlns:xlink="http://www.w3.org/1999/xlink" width="512pt" height="512pt" viewBox="0 0 512 512" version="1.1">
<g id="surface21218402">
<path style=" stroke:none;fill-rule:nonzero;fill:rgb(90.588235%,29.803922%,23.529412%);fill-opacity:1;" d="M 317.34375 62.671875 C 312.257812 62.488281 307.101562 63.046875 302 64.398438 C 288.398438 68 277.199219 76.796875 270.398438 88.796875 L 256 114.796875 C 252.800781 120.398438 254.796875 128.003906 260.398438 131.203125 L 329.601562 171.203125 C 331.601562 172.402344 333.601562 172.796875 335.601562 172.796875 C 336.800781 172.796875 337.597656 172.796875 338.796875 172.398438 C 341.996094 171.597656 344.398438 169.597656 346 166.796875 L 360.796875 140.796875 C 367.597656 128.796875 369.601562 114.804688 366 101.203125 C 362.398438 87.601562 353.601562 76.402344 341.601562 69.601562 C 334.101562 65.351562 325.820312 62.976562 317.34375 62.671875 Z M 240.390625 152.507812 C 236.515625 152.804688 232.796875 154.898438 230.796875 158.398438 L 110 368 C 96.398438 391.199219 88.804688 417.203125 87.203125 443.601562 L 84 495.203125 C 83.601562 499.601562 86 504 90 506.398438 C 92 507.597656 94 508 96 508 C 98.398438 508 100.796875 507.199219 102.796875 506 L 146 477.601562 C 168 462.800781 186.800781 443.199219 200 420 L 321.203125 210.398438 C 324.402344 204.796875 322.398438 197.199219 316.796875 194 C 311.195312 190.800781 303.597656 192.796875 300.398438 198.398438 L 179.203125 408 C 167.601562 427.601562 151.597656 444.800781 132.398438 457.601562 L 109.203125 472.796875 L 110.796875 445.203125 C 111.996094 422.402344 118.796875 400 130.398438 380 L 251.601562 170.398438 C 254.800781 164.796875 252.804688 157.199219 247.203125 154 C 245.101562 152.800781 242.714844 152.328125 240.390625 152.507812 Z M 196 484 C 189.199219 484 184 489.199219 184 496 C 184 502.800781 189.199219 508 196 508 L 356 508 C 362.800781 508 368 502.800781 368 496 C 368 489.199219 362.800781 484 356 484 Z M 416 484 C 409.371094 484 404 489.371094 404 496 C 404 502.628906 409.371094 508 416 508 C 422.628906 508 428 502.628906 428 496 C 428 489.371094 422.628906 484 416 484 Z M 416 484 "/>
</g>
</svg>
